<svg width="90" height="90" viewBox="0 0 90 90" fill="none" xmlns="http://www.w3.org/2000/svg">
<path d="M42.1875 26.7188C33.2736 28.865 25.6377 35.9139 21.041 39.6264C19.7149 38.3977 18.3173 37.2484 16.8557 36.1846C10.4643 31.5158 2.8125 30.9375 2.8125 30.9375C2.8125 30.9375 4.81113 39.9955 10.0828 44.9701C4.81113 49.9465 2.8125 59.0045 2.8125 59.0045C2.8125 59.0045 10.4643 58.4262 16.8557 53.7574C18.305 52.7027 19.6908 51.5635 21.0059 50.3455C25.5938 54.0615 33.2648 61.1279 42.1875 63.2812L39.375 73.125C46.3061 71.9525 53.2371 66.883 56.025 64.6436C78.75 63.6328 87.1875 49.043 87.1875 45C87.1875 41.1328 78.75 26.3672 56.0936 25.36C53.3531 23.1645 46.3641 18.0562 39.375 16.875L42.1875 26.7188Z" stroke="#F1F1F1" stroke-width="5.625" stroke-linejoin="round"/>
<path d="M73.125 44.9982C74.6783 44.9982 75.9375 43.739 75.9375 42.1857C75.9375 40.6324 74.6783 39.3732 73.125 39.3732C71.5717 39.3732 70.3125 40.6324 70.3125 42.1857C70.3125 43.739 71.5717 44.9982 73.125 44.9982Z" fill="#F1F1F1"/>
<path d="M66.5104 62.5781C63.4113 57.2383 61.7791 51.174 61.7791 45C61.7791 38.826 63.4113 32.7617 66.5104 27.4219" stroke="#F1F1F1" stroke-width="5.625" stroke-miterlimit="20" stroke-linecap="round"/>
</svg>
